<svg width="40" height="40" viewBox="0 0 40 40" xmlns="http://www.w3.org/2000/svg"><title>action-status</title><g fill="none" fill-rule="evenodd"><path d="M0 0v4.973h5.583V5H16l-4.918-5H0zm13.838 29H0V7h.067v.026H32v7.302c-1.215-.334-2.495-.512-3.816-.512-7.934 0-14.368 6.43-14.368 14.368 0 .274.007.546.022.816z" fill-opacity=".4" fill="#000"/><path d="M28.184 16.184c-6.626 0-12 5.37-12 12 0 6.626 5.374 12 12 12s12-5.374 12-12c0-6.63-5.374-12-12-12zm0 21.39c-5.186 0-9.39-4.204-9.39-9.39 0-5.19 4.204-9.39 9.39-9.39 5.186 0 9.39 4.2 9.39 9.39 0 5.186-4.204 9.39-9.39 9.39zm-.997-16.065v7.16l4.443 4.44 1.29-1.292-3.907-3.905V21.51h-1.826z" fill="#E00"/></g></svg>