<svg width="40" height="40" viewBox="0 0 40 40" xmlns="http://www.w3.org/2000/svg"><g fill="none" fill-rule="evenodd"><path d="M14 29H0v-3.392c0-1.01 2.563-2.49 6.51-3.942 3.933-1.448 5.19-2.668 5.19-5.283 0-1.57-1.2-1.057-1.727-3.93-.22-1.193-1.28-.02-1.484-2.742 0-1.084.58-1.353.58-1.353s-.297-1.605-.41-2.84C8.514 3.976 9.54 0 15 0s6.482 3.977 6.34 5.516c-.113 1.236-.41 2.84-.41 2.84s.58.27.58 1.355c-.204 2.723-1.263 1.55-1.483 2.742-.527 2.874-1.727 2.362-1.727 3.93 0 2.616 1.257 3.836 5.19 5.284.302.11.596.223.88.334H14v7z" fill-opacity=".4" fill="#000"/><path d="M16 24h24v16H16V24zm0 2l12 6 12-6v3l-12 6-12-6v-3z" fill="#4373D0"/></g></svg>