<svg width="40" height="40" viewBox="0 0 40 40" xmlns="http://www.w3.org/2000/svg"><g fill="none" fill-rule="evenodd"><path d="M2.984 37.032V2.996h21.04v4.13c0 .454.37.824.827.824h4.186l.006 6.036 2.963.046L32 7.112c0-.37-.15-.723-.41-.98L25.816.442C25.56.19 25.213.046 24.85.046L1.377 0C.616 0 0 .616 0 1.377l.005 37.246C.005 39.383.62 40 1.382 40l29.244.046c.763 0 1.38-.617 1.38-1.378v-1.636H2.983z" fill="#9B9B9B"/><path fill="#9B9B9B" d="M7 7h8v2H7zM7 12h17v2H7z"/><rect fill="#4373D0" x="11" y="17.015" width="29" height="16.985" rx="2"/><path d="M14.067 31V20.5H18.1c.62 0 1.178.242 1.675.725.355.332.604.81.745 1.435.14.62.212 1.61.212 2.967 0 1.344-.087 2.37-.26 3.076-.173.707-.474 1.27-.902 1.69-.424.404-1.044.607-1.86.607h-3.643zm1.962-1.538h.908c.734 0 1.212-.246 1.436-.738.223-.497.334-1.507.334-3.03 0-1.443-.1-2.414-.3-2.91-.2-.498-.586-.746-1.156-.746H16.03v7.424zm6.43-2.557v-2.092c0-1.727.266-2.914.794-3.56.53-.648 1.404-.972 2.625-.972 1.367 0 2.278.366 2.734 1.095.456.725.683 1.87.683 3.438v2.106c0 1.548-.248 2.654-.745 3.314-.492.657-1.374.985-2.645.985-1.23 0-2.113-.316-2.646-.945-.532-.63-.8-1.752-.8-3.37zm2.025-2.85v3.404c0 1.448.453 2.173 1.36 2.173.953 0 1.43-.697 1.43-2.092V24.2c0-1.554-.466-2.33-1.396-2.33-.93 0-1.395.728-1.395 2.187zM35.36 27.28h1.963c0 1.223-.224 2.184-.67 2.886-.447.702-1.215 1.053-2.304 1.053-1.286 0-2.18-.334-2.68-1-.497-.67-.746-1.774-.746-3.315v-2.22c0-1.656.26-2.802.78-3.44.524-.642 1.353-.964 2.488-.964 1.066 0 1.836.286 2.31.856.474.57.71 1.45.71 2.645h-1.926c0-.646-.066-1.127-.2-1.44-.13-.316-.38-.473-.75-.473-.926 0-1.388.73-1.388 2.188v3.404c0 .783.118 1.34.355 1.674.242.332.59.5 1.046.5.345 0 .6-.177.765-.528.164-.355.246-.963.246-1.825z" fill="#FFF"/></g></svg>