<svg width="40" height="40" viewBox="0 0 40 40" xmlns="http://www.w3.org/2000/svg"><g fill="none" fill-rule="evenodd"><path d="M2.984 37.032V2.996h21.04v4.13c0 .454.37.824.827.824h4.186l.006 6.036 2.963.046L32 7.112c0-.37-.15-.723-.41-.98L25.816.442C25.56.19 25.213.046 24.85.046L1.377 0C.616 0 0 .616 0 1.377l.005 37.246C.005 39.383.62 40 1.382 40l29.244.046c.763 0 1.38-.617 1.38-1.378v-1.636H2.983z" fill="#9B9B9B"/><rect fill="#D17124" x="11" y="17.015" width="29" height="16.985" rx="2"/><text font-family="Helvetica Condensed" font-size="14" font-style="condensed" font-weight="bold" fill="#FFF"><tspan x="14" y="31">PPT</tspan></text><path d="M19.034 7.782C20.844 9.248 22 11.49 22 14c0 .344-.022.682-.064 1.015h-7.078l4.176-7.233zm-1.7-1.056C16.32 6.26 15.19 6 14 6c-4.418 0-8 3.582-8 8 0 2.526 1.17 4.78 3 6.245v-3.232c0-1.104.9-1.998 1.993-1.998h1.555l4.786-8.29z" fill="#9B9B9B"/></g></svg>