<svg width="40" height="40" viewBox="0 0 40 40" xmlns="http://www.w3.org/2000/svg"><g fill="none" fill-rule="evenodd"><path d="M2.984 37.032V2.996h22.04v4.13c0 .454.37.824.827.824h3.186l.006 6.036 2.963.046L32 7.112c0-.37-.15-.723-.41-.98L25.816.442C25.56.19 25.213.046 24.85.046L1.377 0C.616 0 0 .616 0 1.377l.005 37.246C.005 39.383.62 40 1.382 40l29.244.046c.763 0 1.38-.617 1.38-1.378v-1.636H2.983z" fill="#9B9B9B"/><path d="M9 34.5V38H7v-4H2v-2h5v-3H2v-2h5v-3H2v-2h5v-3H2v-2h5v-3H2v-2h5V9H2V7h5V2h2v5h4V2h2v5h4V2h2v5h4V2h2v5h2.825v2H27v3h2.825v2H9v20.5zm4 2.5v1h2v-1h-2zm6 0v1h2v-1h-2zm6-25V9h-4v3h4zm-6 0V9h-4v3h4zm-6 0V9H9v3h4z" fill="#9B9B9B"/><rect fill="#17894C" x="12" y="17" width="28" height="17" rx="2"/><path d="M15.364 31l2.605-5.373-2.517-5.127h2.208l1.498 3.28 1.436-3.28h2.208l-2.557 5.168L22.89 31h-2.187l-1.593-3.486L17.51 31h-2.146zm8.586-10.5h1.962v8.962h3.61V31H23.95V20.5zm6.816 6.78h1.962v.61c0 1.162.414 1.743 1.244 1.743.743 0 1.114-.4 1.114-1.203 0-.433-.137-.786-.41-1.06-.27-.273-.78-.647-1.53-1.12-.78-.493-1.373-.98-1.78-1.464-.4-.483-.6-1.062-.6-1.736 0-1.846 1.03-2.77 3.09-2.77 1.098 0 1.877.27 2.337.808.465.533.698 1.394.698 2.584h-1.9v-.35c0-.97-.378-1.455-1.135-1.455-.71 0-1.066.328-1.066.985 0 .36.104.644.314.854.214.205.733.583 1.558 1.135.89.58 1.518 1.095 1.887 1.546.373.446.56 1.034.56 1.763 0 .96-.272 1.713-.814 2.255-.542.543-1.32.814-2.33.814-2.134 0-3.2-1.04-3.2-3.118v-.82z" fill="#FFF"/></g></svg>