<svg width="40" height="40" viewBox="0 0 40 40" xmlns="http://www.w3.org/2000/svg"><g fill="none" fill-rule="evenodd"><path d="M2.984 37.032V2.996h21.04v4.13c0 .454.37.824.827.824h4.186l.006 6.036 2.963.046L32 7.112c0-.37-.15-.723-.41-.98L25.816.442C25.56.19 25.213.046 24.85.046L1.377 0C.616 0 0 .616 0 1.377l.005 37.246C.005 39.383.62 40 1.382 40l29.244.046c.763 0 1.38-.617 1.38-1.378v-1.636H2.983z" fill="#9B9B9B"/><rect fill="#E00" x="11" y="17.015" width="29" height="16.985" rx="2"/><path d="M14.78 20.5h3.932c.816 0 1.438.255 1.866.766.433.505.65 1.24.65 2.2 0 2.106-1.046 3.16-3.138 3.16h-1.347V31H14.78V20.5zm1.963 1.538v3.05h.99c.48 0 .844-.117 1.095-.35.25-.237.376-.672.376-1.305 0-.515-.1-.875-.3-1.08-.2-.21-.59-.315-1.17-.315h-.99zM22.63 31V20.5h4.032c.62 0 1.178.242 1.675.725.355.332.604.81.745 1.435.14.62.212 1.61.212 2.967 0 1.344-.087 2.37-.26 3.076-.173.707-.474 1.27-.902 1.69-.424.404-1.044.607-1.86.607H22.63zm1.96-1.538h.91c.734 0 1.212-.246 1.436-.738.223-.497.335-1.507.335-3.03 0-1.443-.1-2.414-.3-2.91-.2-.498-.586-.746-1.156-.746H24.59v7.424zM31.18 31V20.5h5.572v1.538h-3.61v2.666h3.398v1.538h-3.397V31H31.18z" fill="#FFF"/><path d="M12.59 15.015c.43-.92.796-1.796 1.057-2.463-4.513-9.165 5.922-10.89 1.55-.125.334.91.925 1.786 1.562 2.588h-1.753c-.164-.25-.324-.503-.488-.77-.08.264-.173.52-.275.77H12.59zM9 23.278c-3.74 3.196-6.72-.903 0-4.105v1.663c-.952.56-2.343 1.69-2.312 2.084.18 0 1.518-.906 2.312-1.784v2.142zm5.375-13.09c-.37-1.546-.454-3.42.11-3.42.565 0 .244 2.01-.11 3.42z" fill="#9B9B9B"/></g></svg>