<svg width="40" height="40" viewBox="0 0 40 40" xmlns="http://www.w3.org/2000/svg"><g fill="none" fill-rule="evenodd"><path d="M2.984 37.032V2.996h21.04v4.13c0 .454.37.824.827.824h4.186l.006 6.036 2.963.046L32 7.112c0-.37-.15-.723-.41-.98L25.816.442C25.56.19 25.213.046 24.85.046L1.377 0C.616 0 0 .616 0 1.377l.005 37.246C.005 39.383.62 40 1.382 40l29.244.046c.763 0 1.38-.617 1.38-1.378v-1.636H2.983z" fill="#9B9B9B"/><rect fill="#D17124" x="11" y="17.015" width="29" height="16.985" rx="2"/><path d="M15.164 20.5h3.93c.816 0 1.44.255 1.867.766.434.505.65 1.24.65 2.2 0 2.106-1.046 3.16-3.137 3.16h-1.347V31h-1.962V20.5zm1.962 1.538v3.05h.99c.48 0 .844-.117 1.095-.35.252-.237.377-.672.377-1.305 0-.515-.1-.875-.3-1.08-.2-.21-.59-.315-1.17-.315h-.99zM22.95 20.5h3.93c.817 0 1.44.255 1.867.766.433.505.65 1.24.65 2.2 0 2.106-1.046 3.16-3.138 3.16H24.91V31H22.95V20.5zm1.962 1.538v3.05h.99c.48 0 .844-.117 1.095-.35.25-.237.376-.672.376-1.305 0-.515-.1-.875-.3-1.08-.2-.21-.59-.315-1.17-.315h-.99zm5.093-1.538h6.556v1.538h-2.296V31h-1.962v-8.962h-2.297V20.5z" fill="#FFF"/><path d="M19.034 7.782C20.844 9.248 22 11.49 22 14c0 .344-.022.682-.064 1.015h-7.078l4.176-7.233zm-1.7-1.056C16.32 6.26 15.19 6 14 6c-4.418 0-8 3.582-8 8 0 2.526 1.17 4.78 3 6.245v-3.232c0-1.104.9-1.998 1.993-1.998h1.555l4.786-8.29z" fill="#9B9B9B"/></g></svg>