<svg width="40" height="40" viewBox="0 0 40 40" xmlns="http://www.w3.org/2000/svg"><g fill="none" fill-rule="evenodd"><path d="M2.984 37.032V2.996h21.04v4.13c0 .454.37.824.827.824h4.186l.006 6.036 2.963.046L32 7.112c0-.37-.15-.723-.41-.98L25.816.442C25.56.19 25.213.046 24.85.046L1.377 0C.616 0 0 .616 0 1.377l.005 37.246C.005 39.383.62 40 1.382 40l29.244.046c.763 0 1.38-.617 1.38-1.378v-1.636H2.983z" fill="#9B9B9B"/><path fill="#9B9B9B" d="M7 7h8v2H7zM7 12h17v2H7z"/><rect fill="#4373D0" x="11" y="17.015" width="29" height="16.985" rx="2"/><text font-family="Helvetica Condensed" font-size="14" font-style="condensed" font-weight="bold" fill="#FFF"><tspan x="13" y="31">DOC</tspan></text></g></svg>