<svg width="40" height="40" viewBox="0 0 40 40" xmlns="http://www.w3.org/2000/svg"><g fill="none" fill-rule="evenodd"><path d="M2.984 37.032V2.996h22.04v4.13c0 .454.37.824.827.824h3.186l.006 6.036 2.963.046L32 7.112c0-.37-.15-.723-.41-.98L25.816.442C25.56.19 25.213.046 24.85.046L1.377 0C.616 0 0 .616 0 1.377l.005 37.246C.005 39.383.62 40 1.382 40l29.244.046c.763 0 1.38-.617 1.38-1.378v-1.636H2.983z" fill="#9B9B9B"/><path d="M9 34.5V38H7v-4H2v-2h5v-3H2v-2h5v-3H2v-2h5v-3H2v-2h5v-3H2v-2h5V9H2V7h5V2h2v5h4V2h2v5h4V2h2v5h4V2h2v5h2.825v2H27v3h2.825v2H9v20.5zm4 2.5v1h2v-1h-2zm6 0v1h2v-1h-2zm6-25V9h-4v3h4zm-6 0V9h-4v3h4zm-6 0V9H9v3h4z" fill="#9B9B9B"/><rect fill="#17894C" x="12" y="17" width="28" height="17" rx="2"/><text font-family="Helvetica Condensed" font-size="14" font-style="condensed" font-weight="bold" fill="#FFF"><tspan x="15" y="31">XLS</tspan></text></g></svg>