<?xml version="1.0" encoding="UTF-8" standalone="no"?>
<svg width="39px" height="30px" viewBox="0 0 39 30" version="1.1" xmlns="http://www.w3.org/2000/svg" xmlns:xlink="http://www.w3.org/1999/xlink">
    <defs></defs>
    <g stroke="none" stroke-width="1" fill="none" fill-rule="evenodd">
        <g transform="translate(-249.000000, -14.000000)" fill="#D9222A">
            <g transform="translate(249.000000, 14.000000)">
                <g>
                    <path d="M38.2140444,12.5751731 C38.0406588,12.435149 37.6760323,12.5021068 37.365207,12.5662454 C35.871695,12.8751911 34.3899299,13.2588478 32.903701,13.6044442 C31.2163637,13.9965586 29.5431227,14.4431791 27.8792793,14.9243357 C27.1178396,15.1440044 26.3683817,15.3650827 25.6078817,15.5894502 C25.2958817,15.6817815 25.150454,15.7327634 24.8361046,15.8326128 C24.7451829,15.8619803 24.4999058,15.9604201 24.4644299,16.0041189 C24.3819661,16.105143 24.9977432,16.6389261 25.3365263,17.118908 C25.727701,17.6738357 26.3888215,19.0928719 26.5511649,19.6910285 C26.7473396,20.4252152 26.8178215,21.143661 26.90146,21.8968779 C27.088942,21.814414 29.4261227,20.8283719 31.3270203,20.2767333 C31.8530504,19.9614442 31.5145022,18.7933237 31.378707,18.3920466 L31.4090143,18.3920466 C32.9450504,17.7598237 34.5264299,17.3082695 36.1228456,16.8560104 C36.8558576,16.6478538 37.182189,16.5252152 37.9194299,16.3339743 C38.2333094,16.2533899 38.7405444,16.1666972 38.8140805,15.8868839 C38.9503456,15.3676671 38.8946649,14.7934743 38.8570745,14.2629803 C38.8570745,14.2629803 38.6268335,12.9078478 38.2140444,12.5751731"></path>
                    <path d="M10.5836486,25.5629484 C10.8789679,25.3952014 11.5443173,25.0510146 11.6239618,25.0040267 C11.7512992,24.9311954 11.8100341,24.8983038 11.8304739,24.9805327 C11.8866245,25.2138279 12.2108414,25.4844785 12.2409137,25.5192496 C12.5188474,25.8380628 13.5579859,26.1329122 13.6014498,26.1470086 C14.099757,26.3067677 14.6859317,26.3694966 14.8379378,26.3713761 C14.9011365,26.3727857 15.0073293,26.3429484 15.0451546,26.3312014 C15.1226847,26.3067677 15.203739,26.192352 15.230757,26.1279785 C15.2638835,26.0499785 15.3853474,25.7915448 15.43351,25.7215327 C15.4823775,25.6505809 15.6050161,25.3766411 15.667745,25.2829002 C15.7328233,25.1905689 16.7101727,23.4320448 16.7592751,23.3380689 C16.8074378,23.2443279 17.3325281,22.3299424 17.3896185,22.2127074 C17.446239,22.0954725 18.1014859,20.892346 18.1336727,20.8366652 C18.1658594,20.7833339 19.2002992,18.3972857 19.216745,18.3585207 C19.2320161,18.3188158 19.3379739,18.0281954 19.3628775,17.9739243 C19.3884859,17.9196532 19.4049317,17.8172195 19.4681305,17.8179243 C19.5301546,17.8193339 19.8372209,18.0321893 19.9006546,18.0751833 C20.8801185,18.7489905 21.6020884,20.0486773 21.6857269,20.2239424 C22.726745,22.413346 22.6546185,23.5748881 22.6546185,23.5748881 C22.6062209,23.6296291 19.3859016,25.1877496 17.9680402,25.8239665 C15.9261787,26.7425809 11.6782329,28.797599 11.2245643,29.050864 C10.773245,29.3031893 10.4887329,29.4490869 10.3801908,29.3915267 C10.133504,29.2597255 9.73222691,28.8946291 9.46580522,28.119093 C9.24120281,27.4645508 9.24801606,26.9239544 9.27151004,26.6521291 C9.28889558,26.4444424 9.27526908,26.2882074 9.59243775,26.1115327 C9.70426908,26.0499785 10.2862149,25.7323399 10.5836486,25.5629484"></path>
                    <path d="M33.917701,11.0350255 C34.6389661,10.7173869 33.7055504,9.08549537 33.4386588,8.63605561 C32.9833456,7.86592308 32.7347793,7.409905 31.8636227,7.67233272 C30.3806829,8.11965802 29.2022251,8.52915802 27.7265685,9.00138693 C26.2978998,9.45810982 24.8617131,9.92235079 23.4450263,10.4180737 C22.6067612,10.7108086 21.7710805,11.0101219 20.9417432,11.3270556 C20.6400805,11.442411 20.3393576,11.5587062 20.0426287,11.6846339 C19.5971829,11.8758749 20.4775022,12.3582062 20.6525323,12.4824893 C21.2941528,12.9359231 22.0816709,13.6985375 22.6337793,14.2452424 C22.9922974,14.6000014 23.3477612,14.9514713 23.6693938,15.3247905 C23.7979058,15.4735074 23.9640082,15.6100074 24.1082612,15.5625496 C24.5501829,15.4178267 24.9761287,15.1659713 25.3499179,14.9864773 C28.2791468,13.5763689 30.9466528,12.3532725 33.917701,11.0350255"></path>
                    <path d="M15.8165323,3.83543753 C15.829454,4.1401544 16.1045685,5.14287729 16.4776528,5.49317247 C16.6472793,5.65246163 17.3732432,6.29901585 18.2267793,5.99077488 C19.0199359,5.70203392 19.889448,4.34455199 20.1405986,3.70857006 C20.3844661,3.08104597 20.6027251,2.26298573 20.3240865,1.62676886 C20.1861769,1.31335922 19.6636709,0.347521872 19.2001347,0.121509824 C18.6456769,-0.148435959 18.0148637,0.0747568116 17.5811649,0.36866645 C16.9639781,0.785919462 16.4210323,1.26425681 16.1543757,1.98787127 C15.8874841,2.71054597 15.8066649,3.58240741 15.8165323,3.83543753"></path>
                    <path d="M5.15790281,14.7755484 C5.43231245,15.003205 5.95011968,14.8753978 6.02553534,14.8396869 C6.35421606,14.6893255 7.02966787,14.1985363 7.16005944,14.246699 C7.34754137,14.3178857 7.6496739,14.5537652 7.9983245,14.4640183 C8.245951,14.4005845 8.47102329,14.211458 8.71160161,14.0928134 C9.31774619,13.7956146 9.93681245,13.5275484 10.5554088,13.2623014 C11.8175052,12.7205303 13.0944028,12.2194038 14.3799932,11.7424761 C18.6526076,10.1601568 22.8810534,8.62623512 27.2704329,7.47197609 C28.0654691,7.26334958 28.5311197,7.14893392 29.3273305,6.9508797 C29.5608606,6.89190982 30.1254209,6.74436765 30.3591859,6.68680741 C30.6545052,6.61515079 30.8650112,6.63065681 30.9136438,6.16430139 C30.9721438,5.60561464 30.6366498,4.60947006 30.4865233,4.32566284 C30.3631799,4.09236765 30.0603426,3.88350621 29.9205534,3.84286163 C29.7380052,3.78906043 29.6470835,3.81043994 29.3952281,3.84286163 C29.0949751,3.88092187 28.9258185,3.93777729 28.6556378,4.00661464 C27.9456498,4.1889279 27.7520594,4.27115681 27.0803667,4.46286765 C25.9768546,4.77721705 24.8768667,5.10331344 23.7799329,5.44233151 C21.2451679,6.22327127 18.7956859,7.22998814 16.3257643,8.22213874 C13.9267944,9.18539175 11.5435655,10.2151327 9.22001125,11.364693 C8.23913775,11.8503134 7.25779438,12.3392231 6.29618594,12.8636086 C6.00509558,13.0238375 5.68510763,13.1772532 5.42925823,13.3901086 C5.34608956,13.4577713 5.04677631,13.6814339 4.98287269,13.7721207 C4.88936667,13.9039219 4.78669799,13.9168436 4.88349317,14.2370665 C4.97958353,14.5563496 5.01646908,14.6576086 5.15790281,14.7755484"></path>
                    <path d="M12.1961576,23.686555 C12.5196697,22.7178984 12.8805371,21.6670128 13.3046034,20.6499586 C13.7051757,19.6881152 14.4480552,17.8151755 14.4480552,17.8151755 C14.8862179,16.7837899 16.0879347,13.9905911 16.1830853,13.4095851 C16.2693082,12.8884887 16.047995,13.1201393 15.3730131,13.4405972 C12.6221034,14.7473321 9.86085643,16.0496032 7.14095884,17.419302 C5.76891064,18.1100249 4.41048896,18.8275309 3.05794076,19.5537297 C2.52791667,19.8384767 2.00893474,20.1006695 1.49042269,20.4049165 C0.808627511,20.8047839 0.908241969,21.284296 1.06706125,22.0191875 C1.14623594,22.3845189 1.380001,23.6797418 1.92200703,23.5646213 C2.60709137,23.4180189 3.19913956,23.0576213 3.78413956,22.8546333 C5.07160944,22.4084827 6.33370582,21.8939646 7.62563956,21.4614405 C5.82576606,22.3976755 4.06724197,23.3886514 2.25421185,24.2981032 C1.64031426,24.6063442 0.0730311252,25.328549 0.0112419685,25.8710249 C-0.0782700796,26.6580731 0.381272089,27.6943924 0.873470884,28.2803321 C1.37130823,28.8709707 1.67860944,28.5784707 2.27606125,28.2977177 C5.58448293,26.7471152 8.85695884,25.386814 12.1491697,23.8103683 C12.1491697,23.8103683 12.1806516,23.7328381 12.1961576,23.686555"></path>
                </g>
            </g>
        </g>
    </g>
</svg>