<svg width="27" height="27" viewBox="0 0 27 27" xmlns="http://www.w3.org/2000/svg"><path d="M26.06 22.584l-6.763-6.762c.965-1.576 1.55-3.413 1.55-5.398C20.847 4.668 16.177 0 10.424 0 4.67 0 0 4.668 0 10.424c0 5.754 4.668 10.423 10.424 10.423 1.985 0 3.822-.585 5.398-1.547l6.762 6.76c.476.474 1.263.47 1.738 0l1.737-1.738c.474-.475.474-1.262 0-1.738zm-15.636-5.21c-3.838 0-6.95-3.113-6.95-6.95 0-3.838 3.112-6.95 6.95-6.95 3.837 0 6.95 3.112 6.95 6.95 0 3.837-3.113 6.95-6.95 6.95z" fill="#374C75" fill-rule="evenodd"/></svg>